<svg viewBox="0 -41.0714 25 25" xmlns="http://www.w3.org/2000/svg"><path d="M15-23.58c-.3 0-.54-.11-.74-.31L3.81-33.97c-.12-.09-.27-.24-.47-.44 -.2-.21-.51-.57-.93-1.1 -.43-.54-.81-1.08-1.14-1.64 -.34-.56-.64-1.24-.9-2.03 -.27-.8-.4-1.57-.4-2.32 0-2.46.7-4.38 2.12-5.76 1.41-1.39 3.37-2.08 5.87-2.08 .69 0 1.39.11 2.11.35 .71.23 1.38.56 2 .97 .61.4 1.15.78 1.59 1.14 .44.35.87.73 1.27 1.13 .4-.41.82-.79 1.27-1.14 .44-.36.97-.74 1.59-1.15 .61-.41 1.28-.74 2-.98 .71-.24 1.42-.36 2.11-.36 2.5 0 4.45.69 5.87 2.07 1.41 1.38 2.12 3.3 2.12 5.75 0 2.46-1.28 4.97-3.84 7.53L15.62-23.99c-.21.2-.45.3-.74.3Z" transform="translate(0 1.78571) scale(.83333)"/></svg>